<svg xmlns="http://www.w3.org/2000/svg" fill="none" data-pointer="none" viewBox="0 0 24 24" data-evernote-id="14" class="js-evernote-checked"><path fill="#fff" fill-rule="evenodd" d="M2 10.5a8 8 0 0 1 8-8h4a8 8 0 0 1 .455 15.987c-.958 1.228-2.532 2.766-4.744 3.369a.982.982 0 0 1-1.038-.349 1.017 1.017 0 0 1-.13-1.03 4.31 4.31 0 0 0 .363-2.051A8.002 8.002 0 0 1 2 10.5ZM10 4a6.5 6.5 0 0 0-.39 12.988.75.75 0 0 1 .691.6 5.714 5.714 0 0 1-.042 2.476c1.436-.661 2.51-1.806 3.209-2.758a.75.75 0 0 1 .597-.306A6.5 6.5 0 0 0 14 4h-4Z" clip-rule="evenodd"></path></svg>