<svg xmlns="http://www.w3.org/2000/svg" fill="none" data-pointer="none" viewBox="0 0 24 24" data-evernote-id="15" class="js-evernote-checked"><path fill="#fff" d="m12.631 3.578.474-.582-.474.582ZM11 7.766l.084.746a.75.75 0 0 0 .666-.746H11Zm-8.394 10.17-.746-.072.746.071Zm1.003.276-.632-.404.632.404Zm7.39-4.058h.75a.75.75 0 0 0-.683-.747l-.066.747Zm1.632 4.268.474.582-.474-.582Zm7.69-6.258.473.581-.473-.581Zm0-2.327-.474.582.474-.582ZM11.75 4.353a.25.25 0 0 1 .408-.193l.947-1.164c-1.144-.93-2.855-.117-2.855 1.357h1.5Zm0 3.413V4.353h-1.5v3.413h1.5Zm-8.397 10.24c.367-3.86 1.66-6.132 3.128-7.48 1.478-1.36 3.217-1.858 4.603-2.014l-.168-1.491c-1.588.179-3.665.76-5.45 2.4-1.795 1.649-3.212 4.294-3.606 8.443l1.493.142Zm-.376-.198a.186.186 0 0 1 .196-.087c.024.007.07.026.115.082.052.066.07.145.065.203l-1.493-.142c-.068.713.434 1.175.926 1.307.477.127 1.102-.004 1.454-.554l-1.263-.81Zm8.089-4.401c-1.13-.1-2.52 0-3.955.64-1.44.642-2.88 1.806-4.134 3.76l1.263.81c1.11-1.733 2.334-2.689 3.482-3.2a6.443 6.443 0 0 1 3.212-.516l.132-1.494Zm.684 4.24v-3.493h-1.5v3.493h1.5Zm.408.194a.25.25 0 0 1-.408-.194h-1.5c0 1.474 1.711 2.288 2.855 1.357l-.947-1.163Zm7.69-6.26-7.69 6.26.947 1.163 7.69-6.259-.948-1.163Zm0-1.162a.75.75 0 0 1 0 1.163l.946 1.163a2.25 2.25 0 0 0 0-3.49l-.947 1.163Zm-7.69-6.26 7.69 6.26.946-1.164-7.69-6.259-.946 1.164Z"></path><path fill="#fff" fill-rule="evenodd" d="M13.105 2.996c-1.144-.93-2.855-.117-2.855 1.357v2.764C8.774 7.375 7.01 8 5.466 9.42 3.67 11.07 2.254 13.715 1.86 17.864c-.068.713.434 1.175.926 1.306.477.128 1.102-.003 1.454-.553 1.11-1.733 2.334-2.689 3.482-3.2a6.328 6.328 0 0 1 2.528-.543v2.773c0 1.474 1.711 2.288 2.855 1.357l7.69-6.259a2.25 2.25 0 0 0 0-3.49l-7.69-6.259ZM11.75 4.353a.25.25 0 0 1 .408-.193l7.69 6.258a.75.75 0 0 1 0 1.164l-7.69 6.259a.25.25 0 0 1-.408-.194v-3.493a.75.75 0 0 0-.684-.747c-1.129-.1-2.519 0-3.955.64-1.26.56-2.518 1.521-3.652 3.06.47-3.32 1.671-5.341 3.022-6.582 1.478-1.358 3.217-1.857 4.603-2.014a.75.75 0 0 0 .666-.745V4.353Z" clip-rule="evenodd"></path></svg>