<svg xmlns="http://www.w3.org/2000/svg" fill="none" data-pointer="none" viewBox="0 0 24 24" data-evernote-id="13" class="js-evernote-checked"><path fill="#fff" fill-rule="evenodd" d="M13.925 3.045a.798.798 0 0 0-.683.254c-.265.31-.372.564-.504.939l-.045.132c-.132.379-.3.864-.649 1.482-.598 1.06-1.156 1.7-1.843 2.302-.562.493-1.135.829-1.701.989v10.582c.787.017 1.629.027 2.5.027 2.247 0 4.153-.07 5.437-.137.91-.047 1.7-.497 2.113-1.23.577-1.028 1.29-2.535 1.721-4.31.402-1.654.586-3.013.668-3.973.038-.444-.313-.852-.859-.852h-4.982a.75.75 0 0 1-.694-1.034v-.003l.005-.01.016-.04.062-.162c.053-.14.126-.34.204-.572.158-.475.327-1.06.403-1.572.117-.782.088-1.411-.218-1.993-.33-.624-.704-.79-.95-.819Zm2.239 4.705h3.916c1.324 0 2.476 1.063 2.354 2.48a28.048 28.048 0 0 1-.705 4.2c-.473 1.946-1.25 3.583-1.872 4.69-.698 1.242-1.992 1.924-3.343 1.993-1.304.067-3.236.14-5.514.14-2.207 0-4.223-.068-5.652-.134-1.608-.073-2.957-1.267-3.13-2.904A38.236 38.236 0 0 1 2 14.252c0-1.369.087-2.61.19-3.595.179-1.722 1.656-2.907 3.318-2.907H7.75c.319 0 .814-.155 1.462-.724.563-.493 1.013-1.002 1.526-1.912.28-.495.408-.864.537-1.236l.048-.138c.156-.442.337-.9.78-1.416a2.297 2.297 0 0 1 1.996-.768c.826.096 1.588.63 2.103 1.609.521.987.514 1.988.376 2.913a10.946 10.946 0 0 1-.414 1.672ZM7 19.683V9.25H5.508c-.964 0-1.734.673-1.826 1.562a33.59 33.59 0 0 0-.182 3.44c0 1.428.1 2.766.21 3.806.091.863.803 1.522 1.706 1.563.47.021 1.002.043 1.584.063Z" clip-rule="evenodd"></path></svg>