<svg viewBox="0 0 20 21" fill="none" xmlns="http://www.w3.org/2000/svg" class="right-entry-icon js-evernote-checked" data-evernote-id="155"><g clip-path="url(#clip0)" data-evernote-id="156" class="js-evernote-checked"><path d="M10 10.743C7.69883 10.743 5.83333 8.87747 5.83333 6.5763C5.83333 4.27512 7.69883 2.40964 10 2.40964V10.743Z" stroke="currentColor" stroke-width="1.6" stroke-linejoin="round" data-evernote-id="157" class="js-evernote-checked"></path><path d="M10 10.743C10 13.0441 8.1345 14.9096 5.83333 14.9096C3.53217 14.9096 1.66667 13.0441 1.66667 10.743H10Z" stroke="currentColor" stroke-width="1.6" stroke-linejoin="round" data-evernote-id="158" class="js-evernote-checked"></path><path d="M10 10.743C10 8.44182 11.8655 6.57632 14.1667 6.57632C16.4679 6.57632 18.3333 8.44182 18.3333 10.743H10Z" stroke="currentColor" stroke-width="1.6" stroke-linejoin="round" data-evernote-id="159" class="js-evernote-checked"></path><path d="M9.99999 10.743C12.3012 10.743 14.1667 12.6085 14.1667 14.9096C14.1667 17.2108 12.3012 19.0763 9.99999 19.0763V10.743Z" stroke="currentColor" stroke-width="1.6" stroke-linejoin="round" data-evernote-id="160" class="js-evernote-checked"></path></g><defs data-evernote-id="161" class="js-evernote-checked"><clipPath id="clip0" data-evernote-id="162" class="js-evernote-checked"><rect width="20" height="20" fill="currentColor" transform="matrix(-1 0 0 1 20 0.742981)" data-evernote-id="163" class="js-evernote-checked"></rect></clipPath></defs></svg>