<svg xmlns="http://www.w3.org/2000/svg" xmlns:xlink="http://www.w3.org/1999/xlink" style="position: absolute; width: 0; height: 0" aria-hidden="true" id="__SVG_SPRITE_NODE__"><symbol xmlns="http://www.w3.org/2000/svg" viewBox="0 0 12 12" id="bpx-svg-sprite-enterprise"><g fill="none" fill-rule="evenodd"><circle stroke="#FFF" fill="#4AC7FF" cx="6" cy="6" r="5.5"></circle><path d="M5.4 9.939a.533.533 0 0 1-.222.063.331.331 0 0 1-.338-.325.302.302 0 0 1 .02-.092l.64-2.929-2.654.005a.334.334 0 0 1-.346-.325.318.318 0 0 1 .15-.264l3.96-3.997A.467.467 0 0 1 6.843 2a.332.332 0 0 1 .338.325.31.31 0 0 1-.045.153L6.5 5.359h2.658a.333.333 0 0 1 .342.326.316.316 0 0 1-.15.265L5.4 9.939Z" fill="#FFF"></path></g></symbol><symbol xmlns="http://www.w3.org/2000/svg" viewBox="0 0 12 12" id="bpx-svg-sprite-person"><g fill="none" fill-rule="evenodd"><circle stroke="#FFF" fill="#FFC62E" cx="6" cy="6" r="5.5"></circle><path d="M5.4 9.939a.533.533 0 0 1-.222.063.331.331 0 0 1-.338-.325.302.302 0 0 1 .02-.092l.64-2.929-2.654.005a.334.334 0 0 1-.346-.325.318.318 0 0 1 .15-.264l3.96-3.997A.467.467 0 0 1 6.843 2a.332.332 0 0 1 .338.325.31.31 0 0 1-.045.153L6.5 5.359h2.658a.333.333 0 0 1 .342.326.316.316 0 0 1-.15.265L5.4 9.939Z" fill="#FFF"></path></g></symbol><symbol viewBox="0 0 24 24" id="bpx-svg-sprite-like"><path d="M4.909 8.543v15.275h-1.78a2.944 2.944 0 0 1-2.947-2.94v-9.395c0-1.624 1.32-2.94 2.948-2.94h1.779Zm8.64-8.114c1.282.62 2.128 2.183 2.128 4.272 0 1.25-.156 2.53-.468 3.842h5.655a2.955 2.955 0 0 1 2.868 3.662l-1.865 7.568a5.318 5.318 0 0 1-5.163 4.045H6.682V8.508l.132-.047c2.316-.894 3.634-3.072 3.957-6.64C10.9.396 12.256-.196 13.548.428Z"></path></symbol><symbol xmlns="http://www.w3.org/2000/svg" viewBox="0 0 16 16" id="bpx-svg-sprite-add"><path d="M7.25 7.25v-4.5a.75.75 0 0 1 1.5 0v4.5h4.5a.75.75 0 0 1 0 1.5h-4.5v4.5a.75.75 0 0 1-1.5 0v-4.5h-4.5a.75.75 0 0 1 0-1.5h4.5z"></path></symbol><symbol xmlns="http://www.w3.org/2000/svg" fill="none" viewBox="0 0 16 16" id="bpx-svg-sprite-close"><path fill-rule="evenodd" clip-rule="evenodd" d="M1 8a7 7 0 1 1 14 0A7 7 0 0 1 1 8Z" fill="#000" fill-opacity=".3"></path><path opacity=".714" fill-rule="evenodd" clip-rule="evenodd" d="M5.168 5.977a.572.572 0 0 1 .809-.81L8 7.192l2.023-2.023a.572.572 0 0 1 .81.809L8.808 8l2.023 2.023a.572.572 0 1 1-.809.81L8 8.808l-2.023 2.023a.572.572 0 1 1-.81-.809L7.192 8 5.168 5.977Z" fill="#fff"></path></symbol><symbol xmlns="http://www.w3.org/2000/svg" viewBox="0 0 24 24" id="bpx-svg-sprite-coin"><path d="M12 .182C18.527.182 23.818 5.473 23.818 12A11.818 11.818 0 0 1 12 23.818C5.473 23.818.182 18.527.182 12 .182 5.473 5.473.182 12 .182Zm3.658 6.753a.844.844 0 1 0 0-1.688H8.342a.844.844 0 0 0 0 1.688h2.814v1.44a5.335 5.335 0 0 0-5.065 5.313v1.126a.844.844 0 0 0 1.688 0v-1.126a3.647 3.647 0 0 1 3.377-3.624v7.879a.844.844 0 1 0 1.688 0v-7.879c1.9.141 3.37 1.72 3.377 3.624v1.126a.844.844 0 0 0 1.688 0v-1.126a5.335 5.335 0 0 0-5.065-5.312v-1.44Z" fill-rule="nonzero"></path></symbol><symbol xmlns="http://www.w3.org/2000/svg" viewBox="0 0 24 24" id="bpx-svg-sprite-collection"><path d="M17.992 7.2c-1.098-.17-2.11-.93-2.532-1.945l-1.941-4.059c-.59-1.352-2.447-1.352-3.122 0L8.54 5.256C8.034 6.27 7.106 7.03 6.008 7.2l-4.388.676c-1.35.17-1.94 1.86-.928 2.875l3.291 3.383c.76.76 1.097 1.86.928 2.959l-.759 4.735c-.253 1.438 1.266 2.452 2.532 1.776l3.713-2.03a3.272 3.272 0 0 1 3.29 0l3.714 2.03c1.266.676 2.7-.338 2.531-1.776l-.843-4.735c-.17-1.1.168-2.198.928-2.96l3.29-3.382c1.014-1.014.423-2.706-.927-2.875L17.992 7.2Z" fill-rule="nonzero"></path></symbol><symbol xmlns="http://www.w3.org/2000/svg" viewBox="0 0 14 10" id="bpx-svg-sprite-hook"><g stroke="#FFF" stroke-width="2" fill="none" fill-rule="evenodd" stroke-linecap="round"><path d="m1 5 4 4M13 1 5.25 8.918"></path></g></symbol><symbol xmlns="http://www.w3.org/2000/svg" xmlns:xlink="http://www.w3.org/1999/xlink" viewBox="0 0 16 16" id="bpx-svg-sprite-high"><defs><filter x="-12.5%" y="-8.9%" width="125%" height="125%" filterUnits="objectBoundingBox" id="bpx-svg-sprite-high_a"><feOffset dy=".5" in="SourceAlpha" result="shadowOffsetOuter1"></feOffset><feGaussianBlur stdDeviation=".5" in="shadowOffsetOuter1" result="shadowBlurOuter1"></feGaussianBlur><feColorMatrix values="0 0 0 0 0 0 0 0 0 0 0 0 0 0 0 0 0 0 0.5 0" in="shadowBlurOuter1"></feColorMatrix></filter><path d="M4.393 5.952V15H2.746C1.782 15 1 14.22 1 13.259V7.694c0-.962.782-1.741 1.746-1.741l1.647-.001Zm4.524-4.806c.76.367 1.26 1.293 1.26 2.53 0 .74-.092 1.5-.276 2.277h3.349a1.75 1.75 0 0 1 1.7 2.168l-1.105 4.483A3.15 3.15 0 0 1 10.786 15h-5.12l.001-9.496c.917-.667 1.451-1.834 1.605-3.533.076-.844.88-1.194 1.645-.825Z" id="bpx-svg-sprite-high_b"></path></defs><g fill="none" fill-rule="evenodd"><path d="M4.393 5.952V15H2.746C1.782 15 1 14.22 1 13.259V7.694c0-.962.782-1.741 1.746-1.741l1.647-.001Zm4.524-4.806c.76.367 1.26 1.293 1.26 2.53 0 .74-.092 1.5-.276 2.277h3.349a1.75 1.75 0 0 1 1.7 2.168l-1.105 4.483A3.15 3.15 0 0 1 10.786 15h-5.12l.001-9.496c.917-.667 1.451-1.834 1.605-3.533.076-.844.88-1.194 1.645-.825Z" id="bpx-svg-sprite-high_b"></path><use fill="#FFD070" xlink:href="#bpx-svg-sprite-high_b"></use></g></symbol><symbol xmlns="http://www.w3.org/2000/svg" fill="none" viewBox="0 0 12 16" id="bpx-svg-sprite-link"><path fill-rule="evenodd" clip-rule="evenodd" d="M10.752 7.168a1 1 0 0 1 0 1.664l-9.197 6.131A1 1 0 0 1 0 14.133V1.869a1 1 0 0 1 1.555-.833l9.197 6.132Z" fill="#fff" fill-opacity=".8"></path></symbol><symbol viewBox="0 0 16 16" id="bpx-svg-sprite-reserve"><path d="m6.273 13.367.054.073c.27.443.923.76 1.676.76.749 0 1.399-.313 1.672-.754a.5.5 0 0 1 .85.527c-.468.756-1.447 1.227-2.522 1.227-1.081 0-2.065-.477-2.53-1.24a.5.5 0 0 1 .8-.593ZM8 1a.7.7 0 0 1 .698.753 4.671 4.671 0 0 1 2.668 1.373 4.899 4.899 0 0 1 1.398 3.448v2.47c0 .185.087.362.234.474l.668.504c.547.414.765 1.11.556 1.773-.212.673-.792 1.105-1.48 1.105H3.258c-.686 0-1.268-.432-1.48-1.103-.209-.663.01-1.36.556-1.773l.668-.505a.597.597 0 0 0 .234-.473V6.574c0-1.304.497-2.527 1.398-3.448a4.686 4.686 0 0 1 2.67-1.375L7.3 1.7A.7.7 0 0 1 8 1Zm0 1.7c-1.002 0-1.94.397-2.651 1.125a3.89 3.89 0 0 0-1.106 2.51l-.007.239v2.472c0 .442-.185.865-.505 1.165l-.127.106-.667.504a.597.597 0 0 0-.205.675c.07.225.231.365.435.397l.09.007h9.485c.248 0 .444-.146.526-.405a.6.6 0 0 0-.133-.612l-.072-.063-.669-.505a1.597 1.597 0 0 1-.622-1.106l-.008-.165v-2.47a3.899 3.899 0 0 0-1.113-2.75A3.676 3.676 0 0 0 8 2.7Z" fill="#FFF" fill-rule="nonzero"></path></symbol><symbol fill="none" viewBox="0 0 16 16" id="bpx-svg-sprite-popup-close"><path fill-rule="evenodd" clip-rule="evenodd" d="M1 8a7 7 0 1 1 14 0A7 7 0 0 1 1 8Z" fill="#000" fill-opacity=".3"></path><path opacity=".714" fill-rule="evenodd" clip-rule="evenodd" d="M5.168 5.977a.572.572 0 0 1 .809-.81L8 7.192l2.023-2.023a.572.572 0 0 1 .81.809L8.808 8l2.023 2.023a.572.572 0 1 1-.809.81L8 8.808l-2.023 2.023a.572.572 0 1 1-.81-.809L7.192 8 5.168 5.977Z" fill="#fff"></path></symbol><symbol fill="none" viewBox="0 0 10 8" id="bpx-svg-sprite-popup-tick"><path fill-rule="evenodd" clip-rule="evenodd" d="M9.775.83a.543.543 0 0 1 0 .74L4.246 7.396a.717.717 0 0 1-1.052 0L.145 4.183a.543.543 0 0 1 0-.74.478.478 0 0 1 .702 0L3.72 6.473 9.073.83a.478.478 0 0 1 .702 0Z" fill="#fff"></path></symbol><symbol xmlns="http://www.w3.org/2000/svg" fill="none" viewBox="0 0 12 12" id="bpx-svg-sprite-clock-in"><path d="M1.95 1.2c.331 0 .6.137.6.468s-.269.54-.6.54H1.8c-.331 0-.76.46-.76.792v7.2c0 .331.429.84.76.84h8.4c.331 0 .812-.509.812-.84V3c0-.331-.48-.791-.812-.791h-.15c-.331 0-.6-.21-.6-.541 0-.331.269-.468.6-.468h.15A1.8 1.8 0 0 1 12 3v7.2a1.8 1.8 0 0 1-1.8 1.8H1.8A1.8 1.8 0 0 1 0 10.2V3a1.8 1.8 0 0 1 1.8-1.8h.15Zm3.276 7.65-.032-.003a.604.604 0 0 1-.286-.103L4.9 8.738a.552.552 0 0 1-.074-.063l.032.03a.612.612 0 0 1-.022-.02l-.01-.01-2.1-2.1a.6.6 0 0 1 .848-.85l1.72 1.72 3.331-2.663a.6.6 0 1 1 .75.937l-3.75 3-.018.013a.615.615 0 0 1-.014.01l.032-.023a.606.606 0 0 1-.25.118l-.005.001a.54.54 0 0 1-.094.011h-.05ZM3.6 0a.6.6 0 0 1 .6.6v2.1a.6.6 0 1 1-1.2 0V.6a.6.6 0 0 1 .6-.6Zm4.8 0a.6.6 0 0 1 .6.6v2.1a.6.6 0 1 1-1.2 0V.6a.6.6 0 0 1 .6-.6ZM6.6 1.214c.331 0 .558.2.558.486s-.227.485-.558.485H5.4c-.331 0-.563-.154-.563-.485 0-.332.232-.486.563-.486h1.2Z" fill="#fff"></path></symbol></svg>