<svg xmlns="http://www.w3.org/2000/svg" fill="none" data-pointer="none" viewBox="0 0 24 24" data-evernote-id="24" class="js-evernote-checked"><path fill="#fff" fill-rule="evenodd" d="M12.781 4.285A.75.75 0 0 1 14 4.871V19.13a.75.75 0 0 1-1.219.586l-4.24-3.393a3.75 3.75 0 0 0-2.343-.822H4.38c-.343 0-.583-.219-.628-.482A18.013 18.013 0 0 1 3.5 12c0-1.246.13-2.297.253-3.018.045-.263.285-.482.628-.482h1.817a3.75 3.75 0 0 0 2.342-.822l4.242-3.393Zm2.719.586c0-1.886-2.182-2.936-3.656-1.757l-4.24 3.393A2.25 2.25 0 0 1 6.197 7H4.38c-.996 0-1.925.671-2.106 1.728A19.516 19.516 0 0 0 2 12c0 1.347.14 2.485.275 3.272C2.456 16.328 3.385 17 4.38 17h1.817c.51 0 1.006.174 1.405.493l4.241 3.393c1.474 1.179 3.656.129 3.656-1.757V4.87Zm7.78 5.16a.75.75 0 1 0-1.06-1.061l-1.97 1.97-1.97-1.97a.75.75 0 1 0-1.06 1.06L19.19 12l-1.97 1.97a.75.75 0 1 0 1.06 1.06l1.97-1.97 1.97 1.97a.75.75 0 1 0 1.06-1.06L21.31 12l1.97-1.97Z" clip-rule="evenodd"></path></svg>