<svg style="position: absolute; width: 0; height: 0; overflow: hidden;" version="1.1" xmlns="http://www.w3.org/2000/svg" xmlns:xlink="http://www.w3.org/1999/xlink" data-evernote-id="547" class="js-evernote-checked"> <defs data-evernote-id="3034" class="js-evernote-checked"> 
    <symbol id="icon__premium-lock-yellow" viewBox="0 0 11 14" data-evernote-id="3035" class="js-evernote-checked">
    <path fill-rule="evenodd" clip-rule="evenodd" d="M4.875 10.75H6.125V8.63062C6.31563 8.45937 6.4375 8.21313 6.4375 7.9375C6.4375 7.42063 6.01687 7 5.5 7C4.98313 7 4.5625 7.42063 4.5625 7.9375C4.5625 8.21313 4.68437 8.45937 4.875 8.63062V10.75ZM1.75 12H9.25V5.75H1.75V12ZM3.625 3.875C3.625 2.84125 4.46625 2 5.5 2C6.53375 2 7.375 2.84125 7.375 3.875V4.5H3.625V3.875ZM8.625 4.5V3.875C8.625 2.15188 7.22312 0.75 5.5 0.75C3.77688 0.75 2.375 2.15188 2.375 3.875V4.5H0.5V13.25H10.5V4.5H8.625Z" fill="#FFCC00" data-evernote-id="3036" class="js-evernote-checked"></path>
    </symbol>
</defs></svg>