<svg class="icon js-evernote-checked" viewBox="0 0 1024 1024" data-evernote-id="1680" xmlns="http://www.w3.org/2000/svg">
          <path d="M0 512a512 512 0 1 0 1024 0A512 512 0 1 0 0 512z" fill="#F3B243" data-evernote-id="1681" class="js-evernote-checked"></path>
          <path d="M540.672 323.584a90.112 90.112 0 1 0 180.224 0 90.112 90.112 0 1 0-180.224 0zM540.672 688.128a90.112 90.112 0 1 0 180.224 0 90.112 90.112 0 1 0-180.224 0zM229.376 512a90.112 90.112 0 1 0 180.224 0 90.112 90.112 0 1 0-180.224 0z" fill="#FFF" data-evernote-id="1682" class="js-evernote-checked"></path>
          <path d="M341.037 480.37l257.344-175.718 27.713 40.592-257.34 175.718z" fill="#FFF" data-evernote-id="1683" class="js-evernote-checked"></path>
          <path d="M349.053 488.452L601.907 670.56l-28.725 39.887L320.307 528.34z" fill="#FFF" data-evernote-id="1684" class="js-evernote-checked"></path>
        </svg>